<svg xmlns="http://www.w3.org/2000/svg" width="60" height="60" viewBox="0 0 60 60">
    <g data-name="group 27393">
        <path data-name="path 2149" d="m57.694 72.9-1.147-.655V60.719l5.8-3.316-4.649-2.661-5.755 3.3v16.883l5.751 3.275 14.828-8.454L68.016 67z" transform="translate(-27.643 -31.073)" style="fill:#fff"/>
        <path data-name="path 2150" d="M47.575 21.877 23.367 35.693v27.674l4.608 2.62V38.374l19.6-11.2 8.825 5.06 1-4.748z" transform="translate(-17.524 -19.434)" style="fill:#fff"/>
        <path data-name="path 2151" d="M72.229 44.22v22.29l-19.6 11.2-10.384-5.939V49.563l10.384-5.936 10.383 5.915 4.608-2.62v-.041l-14.991-8.555-14.991 8.555v27.572l14.992 8.556 24.207-13.817V41.559z" transform="translate(-22.578 -25.259)" style="fill:#fff"/>
    </g>
</svg>
